<?xml version="1.0" encoding="UTF-8"?>
<svg version="1.1" viewBox="0 0 1000 1000" xmlns="http://www.w3.org/2000/svg">
<path transform="translate(497.48 -.31806)" d="m0 0c2.0549 0.0056482 4.1098 0.0084636 6.1648 0.011082 19.94 0.036923 39.583 0.50687 59.357 3.307 1.2605 0.16629 2.5211 0.33258 3.8198 0.50391 86.93 11.583 171.71 46.103 250.44 109.06 1.537 1.2675 3.0919 2.5131 4.6494 3.7554 12.512 9.9835 23.813 21.3 35.154 32.569 1.1884 1.1804 2.3783 2.3592 3.5698 3.5365 6.5392 6.4694 12.764 12.978 18.47 20.205 1.8637 2.3303 3.8144 4.5405 5.8293 6.7405 17.189 19.186 31.938 41.506 45.062 63.625 0.42475 0.71269 0.84949 1.4254 1.2871 2.1597 35.029 59.103 56.759 123.81 65.713 191.84 0.22647 1.6066 0.22647 1.6066 0.45752 3.2456 5.4192 39.665 5.1523 83.138-0.45752 122.75-0.24943 1.8908-0.24943 1.8908-0.50391 3.8198-11.583 86.93-46.103 171.71-109.06 250.44-1.2675 1.537-2.5131 3.0919-3.7554 4.6494-9.9835 12.512-21.3 23.813-32.569 35.154-1.1804 1.1884-2.3592 2.3783-3.5365 3.5698-7.2039 7.2817-14.545 13.985-22.571 20.362-1.7252 1.4657-3.428 2.9537-5.1294 4.4468-7.9588 6.9761-16.296 13.357-24.871 19.553-0.78182 0.56509-1.5636 1.1302-2.3691 1.7124-11.565 8.3152-23.352 16.072-35.631 23.288-0.78359 0.46583-1.5672 0.93167-2.3745 1.4116-58.996 34.995-123.71 56.649-191.63 65.588-1.6066 0.22647-1.6066 0.22647-3.2456 0.45752-39.665 5.4192-83.138 5.1523-122.75-0.45752-1.2605-0.16629-2.5211-0.33258-3.8198-0.50391-86.93-11.583-171.71-46.103-250.44-109.06-1.537-1.2675-3.0919-2.5131-4.6494-3.7554-12.512-9.9835-23.813-21.3-35.154-32.569-1.1884-1.1804-2.3783-2.3592-3.5698-3.5365-6.5392-6.4694-12.764-12.978-18.47-20.205-1.8637-2.3303-3.8144-4.5405-5.8293-6.7405-17.189-19.186-31.938-41.506-45.062-63.625-0.42475-0.71269-0.84949-1.4254-1.2871-2.1597-36.119-60.942-59.339-129.31-66.713-199.84-0.086136-0.81005-0.17227-1.6201-0.26102-2.4547-1.72-16.676-2.1038-33.267-2.057-50.023 0.0056482-2.0549 0.0084636-4.1098 0.011082-6.1648 0.036923-19.94 0.50687-39.583 3.307-59.357 0.16629-1.2605 0.33258-2.5211 0.50391-3.8198 11.583-86.93 46.103-171.71 109.06-250.44 1.2675-1.537 2.5131-3.0919 3.7554-4.6494 9.9835-12.512 21.3-23.813 32.569-35.154 1.1804-1.1884 2.3592-2.3783 3.5365-3.5698 6.4694-6.5392 12.978-12.764 20.205-18.47 2.3303-1.8637 4.5405-3.8144 6.7405-5.8293 19.186-17.189 41.506-31.938 63.625-45.062 0.71269-0.42475 1.4254-0.84949 2.1597-1.2871 60.942-36.119 129.31-59.339 199.84-66.713 0.81005-0.086136 1.6201-0.17227 2.4547-0.26102 16.676-1.72 33.267-2.1038 50.023-2.057z" fill="#0A1E1E"/>
<path transform="translate(482.06 124.73)" d="m0 0c1.2111-0.012483 2.4222-0.024966 3.67-0.037827 3.903-0.032433 7.8058-0.051445 11.709-0.063736 0.66557-0.0021539 1.3311-0.0043078 2.0169-0.006527 22.854-0.059535 45.047 1.231 67.546 5.3815 1.7907 0.32025 1.7907 0.32025 3.6177 0.64697 11.854 2.1595 23.552 4.8564 35.014 8.5869 1.6921 0.54742 3.3887 1.0814 5.0879 1.6064 31.786 9.8628 62.515 24.939 88.28 46.16 0.5493 0.44779 1.0986 0.89558 1.6646 1.3569 13.781 11.293 26.48 23.585 37.077 37.944 1.2255 1.6538 2.4778 3.2841 3.7354 4.9136 28.32 37.356 39.867 83.815 39.898 130.04 0.002991 1.1355 0.002991 1.1355 0.0060425 2.294-0.0043194 14.422-1.0249 28.918-4.1935 43.018-0.25765 1.1739-0.25765 1.1739-0.52051 2.3716-6.7524 29.951-18.877 59.344-35.667 85.066-0.68812 1.0601-0.68812 1.0601-1.3901 2.1416-3.4733 5.3297-7.0172 10.609-10.61 15.858-0.42926 0.62793-0.85852 1.2559-1.3008 1.9028-6.2909 9.1443-13.157 17.756-20.229 26.306-1.2619 1.5368-2.5014 3.0919-3.7363 4.6504-6.3974 8.0578-13.491 15.433-20.582 22.875-2.1742 2.2887-4.337 4.5876-6.4961 6.8906-0.70697 0.75394-1.4139 1.5079-2.1423 2.2847-1.3411 1.4309-2.6818 2.8621-4.022 4.2939-10.789 11.486-10.789 11.486-16.367 16.171-3.0097 2.5913-5.8359 5.2975-8.625 8.125-3.3526 3.3927-6.7948 6.591-10.414 9.6953-2.3362 2.0212-4.6156 4.0985-6.8984 6.1797-4.369 3.9475-8.8874 7.6692-13.465 11.371-2.664 2.2054-5.2305 4.4857-7.7852 6.8164-4.0104 3.6499-8.1445 7.0734-12.402 10.43-2.5402 2.0118-5.0388 4.0671-7.5352 6.1328-7.1025 5.8238-14.379 11.423-21.642 17.044-2.2889 1.7766-4.5709 3.5616-6.8506 5.3501-9.899 7.7576-19.941 15.292-30.095 22.713-3.2727 2.3972-6.5338 4.81-9.7957 7.2219-12.728 9.4054-25.603 18.535-38.617 27.546 67.32 0.33 134.64 0.66 204 1v-102c4.7188 4.0447 9.1852 8.0573 13.527 12.465 0.88892 0.8946 0.88892 0.8946 1.7958 1.8073 2.5022 2.5183 4.9983 5.0427 7.495 7.5665 1.8384 1.8567 3.68 3.7103 5.5217 5.5637 0.54922 0.55751 1.0984 1.115 1.6643 1.6894 2.7569 2.7738 5.5609 5.4187 8.5403 7.9527 5.7673 4.9923 11.073 10.462 16.446 15.87 1.9949 2.0078 3.993 4.0123 5.9919 6.0161 4.238 4.2494 8.4721 8.5027 12.706 12.757 4.9197 4.9433 9.841 9.885 14.767 14.822 1.9635 1.97 3.9239 3.9429 5.8843 5.916 1.207 1.2106 2.4141 2.4211 3.6214 3.6314 0.53985 0.54502 1.0797 1.09 1.6359 1.6516 2.9904 2.9908 6.1011 5.6578 9.4044 8.2911 1.6882 1.6449 3.3535 3.3134 5 5 0.94571 0.94838 1.8928 1.8954 2.8411 2.8411l56.159 56.159c-1.4549 3.3439-3.2902 5.5384-5.8638 8.1067-0.79488 0.79795-1.5898 1.5959-2.4087 2.418-0.86141 0.85422-1.7228 1.7084-2.6103 2.5885-1.3324 1.3317-1.3324 1.3317-2.6916 2.6902-1.8824 1.8794-3.7665 3.7567-5.6541 5.6308-2.3987 2.3818-4.7909 4.7701-7.1808 7.1608-2.3009 2.3005-4.606 4.5968-6.9109 6.8932-0.84926 0.84815-1.6985 1.6963-2.5735 2.5701-0.81379 0.80741-1.6276 1.6148-2.466 2.4467-0.70456 0.70075-1.4091 1.4015-2.135 2.1235-1.3812 1.3074-2.7843 2.5963-4.2653 3.7896-3.8506 3.146-6.7115 6.0878-9.3039 10.346-4.5972 6.865-10.105 12.715-18.309 14.855-15.333 2.7671-31.42 1.8216-46.922 1.5864-6.1192-0.07398-12.238-0.057717-18.357-0.044045-12.504 0.024864-25.007-0.03813-37.51-0.15233-12.368-0.11267-24.736-0.1856-37.105-0.2062-0.77089-0.0013061-1.5418-0.0026121-2.336-0.0039577-3.9154-0.0064289-7.8309-0.012155-11.746-0.017611-27.687-0.03984-55.373-0.16766-83.059-0.34775-26.886-0.17468-53.772-0.30918-80.658-0.38965-1.2445-0.0037485-1.2445-0.0037485-2.5142-0.0075727-8.3326-0.025053-16.665-0.049294-24.998-0.072938-16.972-0.04818-33.945-0.10178-50.917-0.15867-0.78025-0.0026085-1.5605-0.005217-2.3644-0.0079046-52.047-0.17462-104.09-0.47606-156.14-0.79662-0.2339-16.16-0.41009-32.319-0.51812-48.479-0.051503-7.5043-0.12168-15.008-0.23627-22.511-0.099867-6.5425-0.16423-13.084-0.18649-19.627-0.013007-3.4631-0.043427-6.9241-0.11642-10.386-0.08094-3.8712-0.082587-7.7404-0.077953-11.613-0.053929-1.7101-0.053929-1.7101-0.10895-3.4548 0.061297-4.7389 0.17341-7.7182 3.3898-11.352 2.5344-2.0497 5.1052-3.8286 7.8544-5.5758 1.4964-1.1064 2.9861-2.2218 4.4648-3.3516 1.4894-1.0932 2.9803-2.1843 4.4727-3.2734 0.81356-0.597 1.6271-1.194 2.4653-1.8091 2.531-1.8572 5.0639-3.7119 7.5972-5.5659 10.924-7.998 21.766-16.087 32.515-24.32 5.3002-4.0482 10.655-7.9879 16.11-11.823 6.2163-4.3991 12.234-9.0572 18.278-13.689 5.8797-4.4993 11.807-8.9237 17.784-13.293 7.1103-5.2038 14.098-10.546 21.036-15.977 4.0601-3.1779 8.14-6.3196 12.277-9.3979 6.6135-4.9257 13.103-10.007 19.605-15.078 3.7022-2.8865 7.4187-5.7534 11.145-8.6094 10.212-7.8476 20.306-15.826 30.282-23.971 4.3452-3.5418 8.7326-7.0223 13.156-10.466 5.7028-4.4465 11.236-9.0664 16.734-13.762 2.8052-2.3921 5.6528-4.7278 8.5156-7.0508 9.2707-7.5544 18.297-15.377 27.141-23.426 2.5577-2.2566 5.1935-4.3843 7.8594-6.5117 4.927-3.9805 9.3699-8.3027 13.762-12.852 2.0764-2.0561 4.141-3.9505 6.3555-5.8438 5.3137-4.6025 10.268-9.5662 15.236-14.535 1.6355-1.6333 3.2788-3.2584 4.9226-4.8833 5.8183-5.7881 11.263-11.664 16.351-18.114 1.9438-2.4071 3.9951-4.6533 6.1235-6.8975 11.892-13.137 21.41-27.957 29.812-43.5 0.59426-1.088 1.1885-2.1759 1.8008-3.2969 1.499-2.8663 2.8766-5.7515 4.1992-8.7031 0.51176-1.1357 1.0235-2.2713 1.5508-3.4414 11.053-26.015 12.631-58.019 2.1992-84.309-2.8176-6.7088-6.0919-12.617-10.75-18.25-0.67805-0.82758-1.3561-1.6552-2.0547-2.5078-20.446-23.793-52.148-35.936-82.945-38.492-7.1615-0.36546-14.331-0.34007-21.5-0.3125-1.469 0.0027342-1.469 0.0027342-2.9677 0.0055237-13.161 0.041314-26.113 0.23154-39.064 2.8153-2.7105 0.53996-5.4292 1.013-8.1519 1.4878-56.005 10.244-101.79 40.405-142.32 79.004-4.1779-1.883-6.5695-4.7065-9.4375-8.1875-1.0711-1.2752-2.1427-2.5499-3.2148-3.8242-0.55156-0.65919-1.1031-1.3184-1.6714-1.9976-2.6899-3.1945-5.4339-6.3413-8.1763-9.4907-4.6819-5.3918-9.3384-10.804-13.98-16.23-3.6567-4.2709-7.3339-8.5236-11.02-12.77-4.681-5.3925-9.3384-10.804-13.98-16.23-4.1911-4.8951-8.4111-9.7647-12.635-14.631-5.6572-6.5212-11.273-13.077-16.884-19.638 0.39542-0.46108 0.79084-0.92216 1.1982-1.3972 0.52755-0.61529 1.0551-1.2306 1.5986-1.8645 0.54979-0.64115 1.0996-1.2823 1.666-1.9429 1.1042-1.2897 2.2046-2.5826 3.3027-3.8774 7.1141-8.2936 14.91-15.852 23.234-22.918 0.90879-0.79793 1.8176-1.5959 2.7539-2.418 40.777-35.555 91.26-59.676 143.25-73.582 0.71301-0.19642 1.426-0.39284 2.1606-0.59521 29.126-8.0131 59.7-12.39 89.898-12.678z" fill="#2EB751"/>
</svg>
