<?xml version="1.0" encoding="UTF-8"?>
<svg version="1.1" viewBox="0 0 1000 1000" xmlns="http://www.w3.org/2000/svg">
<path transform="translate(497.48 -.31806)" d="m0 0c2.0549 0.0056482 4.1098 0.0084636 6.1648 0.011082 19.94 0.036923 39.583 0.50687 59.357 3.307 1.2605 0.16629 2.5211 0.33258 3.8198 0.50391 86.93 11.583 171.71 46.103 250.44 109.06 1.537 1.2675 3.0919 2.5131 4.6494 3.7554 12.512 9.9835 23.813 21.3 35.154 32.569 1.1884 1.1804 2.3783 2.3592 3.5698 3.5365 6.5392 6.4694 12.764 12.978 18.47 20.205 1.8637 2.3303 3.8144 4.5405 5.8293 6.7405 17.189 19.186 31.938 41.506 45.062 63.625 0.42475 0.71269 0.84949 1.4254 1.2871 2.1597 35.029 59.103 56.759 123.81 65.713 191.84 0.22647 1.6066 0.22647 1.6066 0.45752 3.2456 5.4192 39.665 5.1523 83.138-0.45752 122.75-0.24943 1.8908-0.24943 1.8908-0.50391 3.8198-11.583 86.93-46.103 171.71-109.06 250.44-1.2675 1.537-2.5131 3.0919-3.7554 4.6494-9.9835 12.512-21.3 23.813-32.569 35.154-1.1804 1.1884-2.3592 2.3783-3.5365 3.5698-7.2039 7.2817-14.545 13.985-22.571 20.362-1.7252 1.4657-3.428 2.9537-5.1294 4.4468-7.9588 6.9761-16.296 13.357-24.871 19.553-0.78182 0.56509-1.5636 1.1302-2.3691 1.7124-11.565 8.3152-23.352 16.072-35.631 23.288-0.78359 0.46583-1.5672 0.93167-2.3745 1.4116-58.996 34.995-123.71 56.649-191.63 65.588-1.6066 0.22647-1.6066 0.22647-3.2456 0.45752-39.665 5.4192-83.138 5.1523-122.75-0.45752-1.2605-0.16629-2.5211-0.33258-3.8198-0.50391-86.93-11.583-171.71-46.103-250.44-109.06-1.537-1.2675-3.0919-2.5131-4.6494-3.7554-12.512-9.9835-23.813-21.3-35.154-32.569-1.1884-1.1804-2.3783-2.3592-3.5698-3.5365-6.5392-6.4694-12.764-12.978-18.47-20.205-1.8637-2.3303-3.8144-4.5405-5.8293-6.7405-17.189-19.186-31.938-41.506-45.062-63.625-0.42475-0.71269-0.84949-1.4254-1.2871-2.1597-36.119-60.942-59.339-129.31-66.713-199.84-0.086136-0.81005-0.17227-1.6201-0.26102-2.4547-1.72-16.676-2.1038-33.267-2.057-50.023 0.0056482-2.0549 0.0084636-4.1098 0.011082-6.1648 0.036923-19.94 0.50687-39.583 3.307-59.357 0.16629-1.2605 0.33258-2.5211 0.50391-3.8198 11.583-86.93 46.103-171.71 109.06-250.44 1.2675-1.537 2.5131-3.0919 3.7554-4.6494 9.9835-12.512 21.3-23.813 32.569-35.154 1.1804-1.1884 2.3592-2.3783 3.5365-3.5698 6.4694-6.5392 12.978-12.764 20.205-18.47 2.3303-1.8637 4.5405-3.8144 6.7405-5.8293 19.186-17.189 41.506-31.938 63.625-45.062 0.71269-0.42475 1.4254-0.84949 2.1597-1.2871 60.942-36.119 129.31-59.339 199.84-66.713 0.81005-0.086136 1.6201-0.17227 2.4547-0.26102 16.676-1.72 33.267-2.1038 50.023-2.057z" fill="#D9FED9"/>
<path transform="translate(497.56 124.75)" d="m0 0c1.5258-0.0015106 1.5258-0.0015106 3.0824-0.0030518 24.582 0.01632 49.105 1.1039 73.124 6.7457 2.3223 0.52799 4.6505 0.99152 6.9893 1.4409 11.38 2.2057 22.295 5.2643 33.242 9.0664 0.91378 0.31566 1.8276 0.63132 2.769 0.95654 38.39 13.425 71.659 33.18 101.23 61.043 1.1737 1.0925 1.1737 1.0925 2.3711 2.207 6.6143 6.3549 12.109 13.496 17.629 20.793 0.71285 0.92941 1.4257 1.8588 2.1602 2.8164 17.601 23.48 29.321 50.661 35.84 79.184 0.15308 0.66725 0.30615 1.3345 0.46387 2.022 3.3594 14.959 4.9086 29.679 4.7861 44.978-0.0034341 0.71033-0.0068683 1.4207-0.010406 2.1525-0.32486 57.816-20.403 111.78-55.24 157.85-1.2721 1.7908-2.543 3.5824-3.8125 5.375-6.9519 9.5377-14.485 18.755-22.359 27.547-1.4545 1.6534-2.8742 3.3374-4.2812 5.0312-6.6453 7.9809-13.717 15.389-21.14 22.654-4.1456 4.0681-8.0601 8.2295-11.846 12.634-2.0169 2.2726-4.2024 4.2724-6.4988 6.2593-3.1671 2.7885-6.2299 5.6151-9.1875 8.625-3.1073 3.1507-6.3324 6.0854-9.6875 8.9688-2.5426 2.2157-5.0186 4.4972-7.5 6.7812-4.5379 4.143-9.2189 8.0488-14 11.906-2.6545 2.1915-5.2075 4.4612-7.75 6.7812-3.8826 3.5307-7.8735 6.8447-11.996 10.09-2.285 1.8238-4.5426 3.6686-6.7891 5.5391-7.6186 6.3425-15.304 12.518-23.276 18.411-4.5072 3.3405-8.8976 6.7967-13.251 10.335-6.1287 4.965-12.444 9.6196-18.861 14.205-4.9967 3.5715-9.9305 7.2128-14.827 10.92-6.7046 5.0654-13.529 9.9413-20.414 14.758-6.1995 4.3579-12.357 8.7751-18.523 13.18 67.32 0.33 134.64 0.66 204 1v-102c4.7188 4.0447 9.1852 8.0573 13.527 12.465 0.88892 0.8946 0.88892 0.8946 1.7958 1.8073 2.5022 2.5183 4.9983 5.0427 7.495 7.5665 1.8384 1.8567 3.68 3.7103 5.5217 5.5637 0.54922 0.55751 1.0984 1.115 1.6643 1.6894 2.7569 2.7738 5.5609 5.4187 8.5403 7.9527 5.7673 4.9923 11.073 10.462 16.446 15.87 1.9949 2.0078 3.993 4.0123 5.9919 6.0161 4.238 4.2494 8.4721 8.5027 12.706 12.757 4.9197 4.9433 9.841 9.885 14.767 14.822 1.9635 1.97 3.9239 3.9429 5.8843 5.916 1.207 1.2106 2.4141 2.4211 3.6214 3.6314 0.53985 0.54502 1.0797 1.09 1.6359 1.6516 2.9904 2.9908 6.1011 5.6578 9.4044 8.2911 1.6882 1.6449 3.3535 3.3134 5 5 0.94571 0.94838 1.8928 1.8954 2.8411 2.8411l56.159 56.159c-1.3782 3.0981-2.9594 5.2042-5.3606 7.5876-0.68444 0.68429-1.3689 1.3686-2.0741 2.0736-0.73957 0.72925-1.4791 1.4585-2.2411 2.2099-1.1433 1.139-1.1433 1.139-2.3096 2.301-2.4377 2.4265-4.8823 4.846-7.3271 7.2654-1.6352 1.6252-3.27 3.2508-4.9043 4.877-3.6623 3.6425-7.3295 7.28-10.999 10.915-1.5579 1.5467-3.1097 3.0991-4.6585 4.6549-2.8499 2.8375-5.8797 5.4382-8.923 8.0654-2.4636 2.2385-4.5587 4.6353-6.6659 7.2102-6.146 7.2551-11.708 13.498-21.505 14.762-5.0998 0.30647-10.155 0.24573-15.26 0.12305-2.3163 0.007426-4.6327 0.022334-6.9489 0.044016-6.3255 0.037806-12.646-0.029673-18.971-0.11523-6.1315-0.074559-12.263-0.051647-18.395-0.039409-12.532 0.022261-25.062-0.034172-37.594-0.1363-12.398-0.10078-24.795-0.16606-37.194-0.1845-0.77241-0.0011686-1.5448-0.0023372-2.3406-0.0035411-3.9231-0.0057521-7.8462-0.010875-11.769-0.015757-27.749-0.035657-55.497-0.15005-83.245-0.31114-26.948-0.15627-53.896-0.27662-80.845-0.34863-0.83145-0.0022359-1.6629-0.0044719-2.5195-0.0067756-8.3501-0.022416-16.7-0.044105-25.05-0.065261-17.008-0.043109-34.017-0.091071-51.025-0.14197-0.78193-0.0023339-1.5639-0.0046678-2.3695-0.0070725-52.169-0.15627-104.34-0.42598-156.5-0.71276-0.42199-15.925-0.73861-31.848-0.93262-47.777-0.092516-7.3979-0.21842-14.792-0.42529-22.188-0.1804-6.4525-0.29576-12.902-0.33568-19.357-0.023321-3.4141-0.077342-6.821-0.20955-10.233-0.71327-20.7-0.71327-20.7 3.645-26.937 4.1506-4.2765 8.8517-7.3818 14.045-10.256 3.2242-1.8231 6.1136-3.9847 9.0883-6.189 1.127-0.79828 2.2557-1.5941 3.3867-2.3867 4.5396-3.2224 8.9791-6.577 13.426-9.9258 6.6608-5.0162 13.343-10.001 20.062-14.938 6.4233-4.72 12.818-9.4757 19.186-14.27 5.2234-3.9265 10.484-7.8003 15.752-11.668 6.3095-4.6373 12.563-9.3301 18.754-14.125 4.6049-3.5662 9.2387-7.0946 13.871-10.625 1.3573-1.0346 1.3573-1.0346 2.7419-2.0901 5.4413-4.1426 10.903-8.2568 16.383-12.347 6.0274-4.5031 11.965-9.1074 17.867-13.773 4.2127-3.3292 8.4543-6.621 12.695-9.9141 11.871-9.2279 23.679-18.513 35.332-28.016 2.8539-2.326 5.7229-4.6315 8.6055-6.9219 11.866-9.4687 23.513-19.211 35.062-29.062 0.86818-0.73863 0.86818-0.73863 1.7539-1.4922 6.6683-5.6745 13.296-11.38 19.77-17.277 2.083-1.8761 4.1859-3.7226 6.3008-5.5625 11.253-9.8341 21.928-20.31 32.525-30.841 1.084-1.0766 2.1697-2.1517 3.257-3.225 6.1997-6.1268 12.023-12.331 17.432-19.179 1.9728-2.4368 4.054-4.7126 6.2119-6.9858 25.94-28.606 45.248-66.034 45.125-105.12-0.0018127-1.0646-0.0018127-1.0646-0.0036621-2.1506-0.11282-24.389-8.1208-44.3-24.934-62.224-28.589-27.499-69.311-33.71-107.29-33.124-16.579 0.36536-33.078 2.5874-49.144 6.6835-1.9778 0.49699-3.9611 0.95397-5.9507 1.4014-42.28 9.6987-81.829 32.048-113.36 61.594-2.338 2.1785-4.7106 4.2945-7.1289 6.3828-2.9913 2.5916-5.8076 5.284-8.5625 8.125-3.8149-1.514-5.6308-3.73-8.125-6.9375-3.1704-3.9864-6.4188-7.821-9.875-11.562-4.1138-4.4699-7.9709-9.0904-11.785-13.816-2.1712-2.6307-4.4173-5.163-6.7148-7.6836-3.0956-3.396-6.0515-6.8617-8.9375-10.438-3.8608-4.7739-7.9369-9.2964-12.094-13.812-3.1976-3.5618-6.1826-7.2757-9.1875-11-3.132-3.7756-6.4589-7.357-9.7812-10.965-3.3654-3.7493-6.5325-7.6435-9.6875-11.57-1.7738-2.2424-1.7738-2.2424-3.8125-4.2148 0.32247-3.457 1.8394-5.2571 4.1758-7.7227 0.65694-0.69779 1.3139-1.3956 1.9907-2.1145 0.70818-0.73436 1.4164-1.4687 2.146-2.2253 1.0893-1.1412 1.0893-1.1412 2.2007-2.3054 5.9288-6.1606 12.048-12.003 18.487-17.632 0.54334-0.48275 1.0867-0.96551 1.6465-1.4629 8.3942-7.4562 17.083-14.209 26.354-20.537 0.59394-0.4096 1.1879-0.8192 1.7998-1.2412 51.873-35.706 110.86-55.783 172.95-64.571 0.77038-0.11175 1.5408-0.22349 2.3345-0.33862 16.355-2.1405 33.013-2.0874 49.478-2.0989z" fill="#2FB852"/>
</svg>
