<svg id="Capa_1" enable-background="new 0 0 512 512" height="512" viewBox="0 0 512 512" width="512" xmlns="http://www.w3.org/2000/svg"><g><path d="m503.706 315.055-31.908-15.947c-23.645 13.124-56.6 13.127-80.248.008l-31.927 15.97c-5.081 2.541-8.29 7.735-8.29 13.415v168.499c0 8.284 6.716 15 15 15h130.667c8.284 0 15-6.716 15-15v-168.528c0-5.682-3.211-10.877-8.294-13.417z"/><path d="m149.263 381.333 16.019 32.038c7.818-11.725 17.576-17.9 23.142-20.798l-5.62-11.24z"/><path d="m222.8 415.6c-8.523 0-16.693 3.382-22.718 9.415-6.033 6.025-9.415 14.195-9.415 22.718v.024c-.337 17.264 14.874 32.485 32.141 32.133 22.67 0 53.052-.008 76.525-.008 7.683-.003 15.134-1.524 22-4.334v-96.377l-18.232 36.429z"/><path d="m375.433 222.816c0 31.041 25.201 56.233 56.233 56.233 74.506-2.786 74.486-109.687-.001-112.467-31.031.001-56.232 25.201-56.232 56.234z"/><path d="m345.433 222.816c0-47.549 38.684-86.233 86.233-86.233v-121.583c0-8.284-6.716-15-15-15h-401.666c-8.284 0-15 6.716-15 15v321.333c0 8.284 6.716 15 15 15h119.263l-36.279-72.559c-8.23-18.111 17.295-30.859 26.833-13.416l42.987 85.975h133.915l18.316-36.594c5.805-11.599 15.213-21.005 26.814-26.807l18.991-9.499c-12.717-15.027-20.407-34.436-20.407-55.617zm-266.166-158.549h121.567c19.881.738 19.866 29.269 0 30h-121.567c-19.881-.738-19.866-29.27 0-30zm176.733 158.549h-176.733c-19.881-.738-19.866-29.269 0-30h176.733c19.881.738 19.866 29.27 0 30zm49.365-64.283h-226.098c-19.881-.738-19.866-29.269 0-30h226.098c19.881.738 19.865 29.269 0 30z"/></g></svg>