<svg height="512pt" viewBox="-19 0 512 512" width="512pt" xmlns="http://www.w3.org/2000/svg"><path d="m325.09375 24.636719h-47.300781c.027343.75.058593 1.5.058593 2.257812v35.011719c0 8.800781-7.136718 15.933594-15.9375 15.933594h-150.933593c-8.800781 0-15.933594-7.132813-15.933594-15.933594v-35.011719c0-.757812.027344-1.507812.054687-2.257812h-47.300781c-26.359375 0-47.800781 21.441406-47.800781 47.800781v391.761719c0 26.359375 21.441406 47.800781 47.800781 47.800781h277.292969c26.359375 0 47.800781-21.441406 47.800781-47.800781v-391.761719c0-26.359375-21.441406-47.800781-47.800781-47.800781zm-232.710938 315.222656h55.378907c8.800781 0 15.933593 7.136719 15.933593 15.9375v55.378906c0 8.800781-7.132812 15.933594-15.933593 15.933594h-55.378907c-8.800781 0-15.933593-7.132813-15.933593-15.933594v-55.378906c0-8.800781 7.132812-15.9375 15.933593-15.9375zm-15.933593-39.117187v-55.378907c0-8.800781 7.132812-15.933593 15.933593-15.933593h55.382813c8.796875 0 15.933594 7.132812 15.933594 15.933593v55.378907c0 8.800781-7.136719 15.933593-15.933594 15.933593h-55.382813c-8.800781 0-15.933593-7.132812-15.933593-15.933593zm116.105469-177.15625h87.957031c8.800781 0 15.933593 7.136718 15.933593 15.933593 0 8.800781-7.132812 15.933594-15.933593 15.933594h-87.957031c-8.796876 0-15.933594-7.132813-15.933594-15.933594 0-8.796875 7.136718-15.933593 15.933594-15.933593zm0 46.199218h87.957031c8.800781 0 15.933593 7.132813 15.933593 15.933594s-7.132812 15.933594-15.933593 15.933594h-87.957031c-8.796876 0-15.933594-7.132813-15.933594-15.933594s7.136718-15.933594 15.933594-15.933594zm0 64.234375h87.957031c8.800781 0 15.933593 7.132813 15.933593 15.933594s-7.132812 15.933594-15.933593 15.933594h-87.957031c-8.796876 0-15.933594-7.132813-15.933594-15.933594s7.136718-15.933594 15.933594-15.933594zm0 46.199219h87.957031c8.800781 0 15.933593 7.132812 15.933593 15.933594 0 8.796875-7.132812 15.933594-15.933593 15.933594h-87.957031c-8.796876 0-15.933594-7.136719-15.933594-15.933594 0-8.800782 7.136718-15.933594 15.933594-15.933594zm0 64.234375h87.957031c8.800781 0 15.933593 7.132813 15.933593 15.933594s-7.132812 15.933593-15.933593 15.933593h-87.957031c-8.796876 0-15.933594-7.132812-15.933594-15.933593s7.136718-15.933594 15.933594-15.933594zm0 46.195313h87.957031c8.800781 0 15.933593 7.132812 15.933593 15.933593s-7.132812 15.933594-15.933593 15.933594h-87.957031c-8.796876 0-15.933594-7.132813-15.933594-15.933594s7.136718-15.933593 15.933594-15.933593zm-44.792969-271.652344c8.800781 0 15.933593 7.132812 15.933593 15.933594v55.378906c0 8.800781-7.132812 15.933594-15.933593 15.933594h-55.378907c-8.800781 0-15.933593-7.132813-15.933593-15.933594v-55.378906c0-8.800782 7.132812-15.933594 15.933593-15.933594zm0 0"/><path d="m126.910156 45.972656h119.074219v-19.078125c0-14.828125-12.066406-26.894531-26.894531-26.894531h-65.28125c-14.832032 0-26.894532 12.066406-26.894532 26.894531v19.078125zm0 0"/><path d="m108.316406 150.863281h23.511719v23.511719h-23.511719zm0 0"/><path d="m108.316406 261.296875h23.511719v23.511719h-23.511719zm0 0"/><path d="m108.316406 371.726562h23.511719v23.511719h-23.511719zm0 0"/><path d="m473.644531 114.871094c0-17.523438-14.203125-31.726563-31.726562-31.726563-17.523438 0-31.730469 14.203125-31.730469 31.726563v12.007812h63.457031zm0 0"/><path d="m410.191406 439.28125 31.726563 56.785156 31.726562-56.785156v-15.933594h-63.453125zm0 0"/><path d="m410.191406 158.746094h63.453125v232.734375h-63.453125zm0 0"/></svg>