<svg viewBox="-30 1 511 511.99925" xmlns="http://www.w3.org/2000/svg"><path d="m315.5 301c-8.277344 0-15 6.722656-15 15 0 8.273438 6.722656 15 15 15s15-6.726562 15-15c0-8.277344-6.722656-15-15-15zm0 0"/><path d="m315.5 391c-19.554688 0-36.242188 12.539062-42.4375 30h84.875c-6.199219-17.460938-22.882812-30-42.4375-30zm0 0"/><path d="m450.5 166c0-8.292969-6.710938-15-15-15h-107.738281c1.683593 4.714844 2.738281 9.714844 2.738281 15v30c0 24.8125-20.1875 45-45 45h-120c-24.8125 0-45-20.1875-45-45v-30c0-5.285156 1.054688-10.285156 2.734375-15h-107.734375c-8.292969 0-15 6.707031-15 15v331c0 8.289062 6.707031 15 15 15h420c8.289062 0 15-6.710938 15-15zm-345 105h60c8.289062 0 15 6.707031 15 15 0 8.289062-6.710938 15-15 15h-60c-8.292969 0-15-6.710938-15-15 0-8.292969 6.707031-15 15-15zm90 150h-120c-8.292969 0-15-6.710938-15-15 0-8.292969 6.707031-15 15-15h120c8.289062 0 15 6.707031 15 15 0 8.289062-6.710938 15-15 15zm0-60h-120c-8.292969 0-15-6.710938-15-15 0-8.292969 6.707031-15 15-15h120c8.289062 0 15 6.707031 15 15 0 8.289062-6.710938 15-15 15zm180 90h-120c-8.292969 0-15-6.710938-15-15 0-41.355469 33.648438-75 75-75-24.8125 0-45-20.1875-45-45 0-24.816406 20.1875-45 45-45s45 20.183594 45 45c0 24.8125-20.1875 45-45 45 41.351562 0 75 33.644531 75 75 0 8.289062-6.710938 15-15 15zm0 0"/><path d="m326.105469 4.394531c-5.859375-5.859375-15.351563-5.859375-21.210938 0l-79.394531 79.394531-79.394531-79.394531c-5.859375-5.859375-15.351563-5.859375-21.210938 0s-5.859375 15.351563 0 21.210938l65.433594 65.4375c-5.710937 2.117187-9.828125 7.5-9.828125 13.957031v46h-15c-8.292969 0-15 6.707031-15 15v30c0 8.289062 6.707031 15 15 15h120c8.289062 0 15-6.710938 15-15v-30c0-8.292969-6.710938-15-15-15h-15v-46c0-6.457031-4.117188-11.839844-9.832031-13.957031l65.4375-65.4375c5.859375-5.859375 5.859375-15.351563 0-21.210938zm0 0"/></svg>